<svg xmlns="http://www.w3.org/2000/svg" xmlns:xlink="http://www.w3.org/1999/xlink" width="893" zoomAndPan="magnify" viewBox="0 0 669.75 293.999989" height="392" preserveAspectRatio="xMidYMid meet" version="1.0"><defs><g/></defs><g fill="#3c2c5d" fill-opacity="1"><g transform="translate(54.152522, 216.745205)"><g><path d="M 9.75 -42.03125 C 9.75 -23.796875 9.328125 -8.75 2.109375 0 L 39.765625 0 C 28.671875 -7.65625 15.21875 -23.453125 15.21875 -46.40625 L 15.21875 -64.734375 C 22.953125 -64.734375 32.375 -65.828125 42.453125 -65.828125 C 54.90625 -65.828125 60.453125 -60.453125 60.453125 -53.046875 C 60.453125 -45.828125 55.078125 -40.953125 45.578125 -40.953125 C 34.46875 -40.953125 24.46875 -47.078125 20.265625 -49.359375 C 20.265625 -31.4375 40.609375 1.6875 66.84375 1.6875 C 69.953125 1.6875 76.421875 1.015625 78.109375 0 L 78.109375 -26.234375 C 74.078125 -22.203125 67.09375 -18.921875 59.1875 -18.921875 C 45.15625 -18.921875 30.765625 -28.84375 26.828125 -41.03125 C 33.46875 -35.8125 41.625 -33.96875 50.03125 -33.96875 C 65.328125 -33.96875 80.125 -42.875 80.125 -60.03125 C 80.125 -76.9375 67.6875 -85.671875 50.875 -85.671875 C 34.640625 -85.671875 18.40625 -84.078125 2.109375 -84.078125 C 9.328125 -75.328125 9.75 -60.28125 9.75 -42.03125 Z M 9.75 -42.03125 "/></g></g></g><g fill="#3c2c5d" fill-opacity="1"><g transform="translate(136.803244, 216.745205)"><g><path d="M 38.34375 1.6875 C 57.171875 1.6875 72.46875 -10.9375 72.46875 -31.53125 C 72.46875 -52.125 57.171875 -64.65625 38.34375 -64.65625 C 19.5 -64.65625 4.203125 -52.125 4.203125 -31.53125 C 4.203125 -10.9375 19.5 1.6875 38.34375 1.6875 Z M 9.078125 -31.609375 C 9.078125 -42.796875 21.78125 -47.75 38.25 -47.75 C 54.65625 -47.75 67.59375 -42.796875 67.59375 -31.609375 C 67.59375 -20.34375 54.65625 -15.21875 38.25 -15.21875 C 21.78125 -15.21875 9.078125 -20.34375 9.078125 -31.609375 Z M 9.078125 -31.609375 "/></g></g></g><g fill="#3c2c5d" fill-opacity="1"><g transform="translate(213.484283, 216.745205)"><g><path d="M 2.515625 0 L 43.46875 0 C 63.390625 0 75.171875 -12.015625 75.171875 -31.53125 C 75.171875 -49.9375 64.3125 -64.734375 43.546875 -64.734375 C 28.75 -64.734375 19 -56.328125 19 -45.3125 C 19 -40.609375 20.171875 -38.25 23.203125 -36.65625 C 23.203125 -43.21875 32.203125 -47.75 44.0625 -47.75 C 56.578125 -47.75 69.703125 -43.546875 69.703125 -31.53125 C 69.703125 -19.25 54.0625 -19.171875 42.875 -19.171875 C 26.3125 -19.171875 15.546875 -21.015625 15.546875 -21.015625 L 15.546875 -31.53125 C 15.546875 -54.484375 24.796875 -74.578125 39.515625 -84.078125 L 2.515625 -84.078125 C 9.75 -75.328125 10.171875 -60.28125 10.171875 -42.03125 C 10.171875 -23.796875 9.75 -8.75 2.515625 0 Z M 2.515625 0 "/></g></g></g><g fill="#3c2c5d" fill-opacity="1"><g transform="translate(292.855881, 216.745205)"><g><path d="M 14.296875 -66.5 C 20.84375 -66.5 26.140625 -71.796875 26.140625 -78.359375 C 26.140625 -84.828125 20.84375 -90.21875 14.296875 -90.21875 C 7.8125 -90.21875 2.515625 -84.828125 2.515625 -78.359375 C 2.515625 -71.796875 7.8125 -66.5 14.296875 -66.5 Z M 4.203125 0 L 24.375 0 C 17.15625 -8.75 16.734375 -22.03125 16.734375 -31.53125 C 16.734375 -40.1875 17.15625 -54.3125 24.375 -63.0625 L 4.203125 -63.0625 C 11.4375 -54.3125 11.859375 -40.1875 11.859375 -31.53125 C 11.859375 -22.03125 11.4375 -8.75 4.203125 0 Z M 4.203125 0 "/></g></g></g><g fill="#3c2c5d" fill-opacity="1"><g transform="translate(321.527182, 216.745205)"><g><path d="M 2.515625 -63.0625 C 9.75 -54.3125 10.171875 -41.03125 10.171875 -31.53125 C 10.171875 -22.03125 9.75 -8.75 2.515625 0 L 35.0625 0 C 20.34375 -9.5 15.046875 -18.75 15.046875 -29.265625 C 15.046875 -41.203125 27.75 -48.015625 39.59375 -48.015625 C 54.484375 -48.015625 64.734375 -40.953125 64.734375 -29.265625 C 64.734375 -18.75 59.4375 -9.5 44.734375 0 L 77.265625 0 C 70.03125 -8.75 69.609375 -16.3125 69.609375 -31.53125 C 69.609375 -40.6875 73.140625 -64.734375 46.328125 -64.734375 C 25.140625 -64.734375 17.40625 -47.34375 15.21875 -40.609375 C 15.546875 -50.1875 17.0625 -56.25 22.703125 -63.0625 Z M 2.515625 -63.0625 "/></g></g></g><g fill="#3c2c5d" fill-opacity="1"><g transform="translate(398.796779, 216.745205)"><g><path d="M 2.515625 -16.140625 C 2.515625 -3.1875 15.046875 1.6875 29.421875 1.6875 C 45.0625 1.6875 55.65625 -4.875 61.046875 -15.46875 L 61.046875 0 L 72.5625 0 C 72.5625 0 65.921875 -5.546875 65.921875 -28.078125 C 65.921875 -29.671875 65.828125 -36.40625 65.828125 -37.921875 C 65.828125 -50.453125 60.78125 -64.734375 35.484375 -64.734375 C 13.953125 -64.734375 4.125 -57.25 4.125 -48.09375 C 4.125 -41.28125 8.15625 -38.171875 13.953125 -38.25 C 12.109375 -46.5 26.734375 -47.59375 35.65625 -47.59375 C 53.71875 -47.59375 59.78125 -41.03125 60.875 -31.53125 C 55.484375 -35.65625 46.40625 -38 34.96875 -38 C 18.921875 -38 2.515625 -31.703125 2.515625 -16.140625 Z M 40.015625 -32.625 C 51.125 -32.625 56.921875 -29.421875 61.046875 -26.65625 L 61.046875 -25.890625 C 54.3125 -18.75 44.8125 -15.546875 31.53125 -15.546875 C 23.296875 -15.546875 18.078125 -17.484375 18.078125 -22.453125 C 18.078125 -28.671875 28.171875 -32.625 40.015625 -32.625 Z M 40.015625 -32.625 "/></g></g></g><g fill="#3c2c5d" fill-opacity="1"><g transform="translate(473.880287, 216.745205)"><g><path d="M 2.515625 0 L 35.0625 0 C 20.34375 -9.5 15.046875 -18.75 15.046875 -29.265625 C 15.046875 -41.203125 25.140625 -48.015625 37 -48.015625 C 47.75 -48.015625 51.28125 -45.15625 51.28125 -45.15625 L 51.28125 -63.0625 C 51.28125 -63.0625 47.75 -64.734375 43.125 -64.734375 C 24.890625 -64.734375 17.3125 -47.078125 15.21875 -40.53125 C 15.546875 -50.109375 17.0625 -56.25 22.703125 -63.0625 L 2.515625 -63.0625 C 9.75 -54.3125 10.171875 -41.03125 10.171875 -31.53125 C 10.171875 -22.03125 9.75 -8.75 2.515625 0 Z M 2.515625 0 "/></g></g></g><g fill="#3c2c5d" fill-opacity="1"><g transform="translate(527.691558, 216.745205)"><g><path d="M 33.375 0 L 43.046875 0 C 43.046875 9 34.890625 12.4375 26.40625 12.4375 C 20.9375 12.4375 15.390625 11.015625 11.765625 8.828125 L 11.765625 26.65625 C 11.765625 26.65625 13.703125 29.09375 22.109375 29.09375 C 51.453125 29.09375 53.46875 -35.484375 87.109375 -63.0625 L 51.546875 -63.0625 C 52.96875 -62.140625 60.375 -58.1875 60.375 -46.328125 C 60.375 -37.828125 53.8125 -16.984375 43.546875 -16.984375 C 33.296875 -16.984375 26.734375 -37.828125 26.734375 -46.328125 C 26.734375 -58.1875 34.140625 -62.140625 35.5625 -63.0625 L 0 -63.0625 C 15.71875 -50.1875 33.375 -14.546875 33.375 0 Z M 33.375 0 "/></g></g></g><path fill="#3c2c5d" d="M 51.742188 91.035156 C 52.730469 94.542969 54.445312 97.875 56.613281 100.828125 C 58.910156 103.957031 61.671875 106.710938 64.769531 109.050781 C 68.175781 111.621094 71.953125 113.6875 75.800781 115.511719 C 83.621094 119.21875 91.878906 121.9375 99.601562 125.867188 C 107.234375 129.753906 114.359375 134.632812 120.734375 140.347656 C 120.785156 140.398438 120.839844 140.445312 120.894531 140.492188 C 118.285156 143.484375 116.105469 146.835938 114.964844 150.667969 C 113.84375 154.449219 113.777344 158.667969 115.574219 162.257812 C 117.210938 165.519531 120.804688 167.949219 124.503906 168.460938 C 124.535156 168.554688 124.5625 168.648438 124.597656 168.742188 C 125.457031 171.023438 127.539062 172.355469 129.25 171.714844 C 130.820312 171.125 131.53125 169.089844 130.980469 166.996094 C 131.109375 166.902344 131.242188 166.808594 131.367188 166.707031 C 134.304688 164.335938 135.105469 160.261719 134.507812 156.695312 C 133.816406 152.582031 131.15625 149.085938 128.417969 146.082031 C 126.617188 144.105469 124.71875 142.214844 122.75 140.394531 C 124.621094 138.371094 126.65625 136.492188 128.660156 134.609375 C 131.660156 131.796875 134.535156 128.890625 137.074219 125.648438 C 141.9375 119.4375 145.6875 112.394531 148.175781 104.910156 C 149.476562 101.003906 150.421875 96.980469 151.011719 92.902344 C 169.0625 86.914062 183.390625 78.695312 189.40625 71.175781 C 195.65625 63.371094 188.476562 52.074219 178.757812 54.40625 C 170.4375 56.402344 158.265625 58.550781 143.425781 60.140625 C 143.394531 58.335938 143.289062 56.863281 142.929688 56.097656 C 140.578125 21.4375 134.285156 8.519531 130.167969 3.722656 C 128.550781 1.835938 125.976562 1.070312 123.601562 1.792969 C 122.601562 2.097656 121.640625 2.367188 120.722656 2.605469 C 110.003906 5.394531 104.464844 3.988281 90.441406 2.242188 C 89.238281 2.097656 87.972656 1.941406 86.636719 1.789062 C 72.101562 0.140625 64.738281 37.28125 61.949219 56.097656 C 61.890625 56.496094 61.835938 56.886719 61.78125 57.277344 C 61.597656 58.628906 61.464844 59.859375 61.363281 60.984375 C 52.488281 60.207031 43.441406 59.117188 34.316406 57.644531 C 34.316406 57.644531 33.332031 57.445312 31.875 57.269531 C 27.160156 56.691406 17.492188 56.304688 20.1875 63.386719 C 22.25 68.800781 32.59375 81.738281 51.742188 91.042969 Z M 129.550781 149.445312 C 131.984375 152.570312 133.855469 156.390625 133.28125 160.453125 C 132.988281 162.542969 132.003906 164.433594 130.464844 165.683594 C 129.476562 163.859375 127.667969 162.875 126.148438 163.445312 C 124.851562 163.929688 124.140625 165.402344 124.242188 167.078125 C 122.316406 166.726562 120.46875 165.800781 119.035156 164.542969 C 112.914062 159.171875 115.675781 149.664062 119.78125 143.980469 C 120.433594 143.074219 121.132812 142.210938 121.867188 141.375 C 124.605469 143.875 127.28125 146.53125 129.550781 149.445312 Z M 148.304688 99.746094 C 146.324219 107.539062 142.984375 114.96875 138.425781 121.589844 C 136.144531 124.902344 133.554688 127.988281 130.699219 130.820312 C 127.757812 133.742188 124.597656 136.449219 121.78125 139.5 C 117.652344 135.78125 113.199219 132.410156 108.523438 129.433594 C 104.855469 127.101562 101.035156 125.007812 97.09375 123.175781 C 93.09375 121.3125 88.988281 119.691406 84.902344 118.023438 C 77.015625 114.796875 68.859375 111.316406 62.527344 105.457031 C 58.519531 101.753906 55.0625 97.03125 53.316406 91.785156 C 63.230469 96.378906 75.394531 99.972656 89.878906 101.121094 C 95.046875 101.53125 100.519531 101.628906 106.285156 101.351562 C 121.449219 100.617188 136.460938 97.585938 149.597656 93.359375 C 149.269531 95.507812 148.839844 97.636719 148.304688 99.746094 Z M 148.304688 99.746094 " fill-opacity="1" fill-rule="nonzero"/></svg>